# xmcd
#
# Track frame offsets:
#	150
#	17030
#	33955
#	49632
#	64030
#	80370
#	94852
#	112455
#	131285
#	147035
#	165247
#	178342
#
# Disc length: 2632 seconds
#
# Revision: 2
# Processed by: cddbd v1.5.2PL0 Copyright (c) Steve Scherf et al.
# Submitted via: audiograbber 1.83.01
#
DISCID=990a460c
DTITLE=BZN - The Best Days Of My Life
DYEAR=1999
DGENRE=Folklore
TTITLE0=Isles Of Atlantis
TTITLE1=Baby Voulez-Vous?
TTITLE2=The Best Days Of My Life
TTITLE3=Heat Me Up
TTITLE4=Please Don't Go Away
TTITLE5=Quisiera Bailar
TTITLE6=You're The One - You're The Only
TTITLE7=Lay Your Head Upon My Shoulder
TTITLE8=Walk Out
TTITLE9=I Need Some Lovin'!
TTITLE10=Ma Chérie
TTITLE11=I'll Go Out Into The World
EXTD=
EXTT0=
EXTT1=
EXTT2=
EXTT3=
EXTT4=
EXTT5=
EXTT6=
EXTT7=
EXTT8=
EXTT9=
EXTT10=
EXTT11=
PLAYORDER=
